<svg width="18" height="18" viewBox="0 0 18 18" fill="none" xmlns="http://www.w3.org/2000/svg">
<g clip-path="url(#clip0_1280_19326)">
<path d="M12.6 4.68263L13.316 5.40063L6.271 12.4446H5.555V11.7296L12.6 4.68263ZM15.4 0.000632126C15.1957 0.00159516 15 0.0827561 14.855 0.226632L13.433 1.64963L16.349 4.56663L17.773 3.14263C17.8457 3.07066 17.9034 2.985 17.9428 2.8906C17.9821 2.79619 18.0024 2.69492 18.0024 2.59263C18.0024 2.49034 17.9821 2.38907 17.9428 2.29467C17.9034 2.20026 17.8457 2.1146 17.773 2.04263L15.953 0.222632C15.8804 0.150422 15.7941 0.0935537 15.6991 0.0554143C15.6041 0.017275 15.5024 -0.00135559 15.4 0.000632126V0.000632126ZM12.6 2.48163L4 11.0816V14.0006H6.916L15.516 5.40063L12.6 2.48163Z" fill="#999999"/>
<path d="M16.4 18H1.6C1.17565 18 0.768687 17.8314 0.468629 17.5314C0.168571 17.2313 0 16.8243 0 16.4V1.6C0 1.17565 0.168571 0.768687 0.468629 0.468629C0.768687 0.168571 1.17565 0 1.6 0H8.2C8.41217 0 8.61566 0.0842854 8.76569 0.234315C8.91571 0.384344 9 0.587827 9 0.8C9 1.01217 8.91571 1.21566 8.76569 1.36569C8.61566 1.51571 8.41217 1.6 8.2 1.6H2.4C2.18783 1.6 1.98434 1.68429 1.83431 1.83431C1.68429 1.98434 1.6 2.18783 1.6 2.4V15.6C1.6 15.8122 1.68429 16.0157 1.83431 16.1657C1.98434 16.3157 2.18783 16.4 2.4 16.4H15.6C15.8122 16.4 16.0157 16.3157 16.1657 16.1657C16.3157 16.0157 16.4 15.8122 16.4 15.6V9.8C16.4 9.58783 16.4843 9.38434 16.6343 9.23431C16.7843 9.08429 16.9878 9 17.2 9C17.4122 9 17.6157 9.08429 17.7657 9.23431C17.9157 9.38434 18 9.58783 18 9.8V16.4C18 16.8243 17.8314 17.2313 17.5314 17.5314C17.2313 17.8314 16.8243 18 16.4 18Z" fill="#999999"/>
</g>
<defs>
<clipPath id="clip0_1280_19326">
<rect width="18" height="18" fill="white"/>
</clipPath>
</defs>
</svg>
